# xmcd
#
# Track frame offsets:
#	150
#	13052
#	25281
#	39161
#	50237
#	60747
#	71082
#	81562
#	94471
#	105845
#	116388
#	129760
#	143825
#	154112
#
# Disc length: 2220 seconds
#
# Revision: 1
# Processed by: cddbd v1.5.2PL0 Copyright (c) Steve Scherf et al.
# Submitted via: audiograbber 1.83.01
#
DISCID=ba08aa0e
DTITLE=Cowboy Copas - Complete Hit Singles A's and B's CD2/2
DYEAR=2012
DGENRE=Country
TTITLE0=The Strange Little Girl
TTITLE1=You'll Never See Me Cry
TTITLE2='Tis Sweet To Be Remembered
TTITLE3=Because Of You
TTITLE4=Alabam
TTITLE5=I Can
TTITLE6=Flat Top
TTITLE7=True Love (Is The Greatest Thing)
TTITLE8=Sunny Tennessee
TTITLE9=Dreaming
TTITLE10=Signed, Sealed And Delivered
TTITLE11=New Filipino Baby
TTITLE12=Goodbye Kisses
TTITLE13=The Gypsy Girl
EXTD=
EXTT0=
EXTT1=
EXTT2=
EXTT3=
EXTT4=
EXTT5=
EXTT6=
EXTT7=
EXTT8=
EXTT9=
EXTT10=
EXTT11=
EXTT12=
EXTT13=
PLAYORDER=
